<svg xmlns="http://www.w3.org/2000/svg" viewBox="0 0 37.932 37.932">
  <defs>
    <style>
      .cls-1 {
        fill: #fff;
        stroke: #fff;
        stroke-width: 0.4px;
      }
    </style>
  </defs>
  <g id="calendar" transform="translate(0.2 0.2)">
    <path id="Path_64" data-name="Path 64" class="cls-1" d="M41.765,34a7.765,7.765,0,1,0,7.765,7.765A7.774,7.774,0,0,0,41.765,34Zm0,14.236a6.471,6.471,0,1,1,6.471-6.471A6.478,6.478,0,0,1,41.765,48.236Z" transform="translate(-11.998 -11.998)"/>
    <path id="Path_65" data-name="Path 65" class="cls-1" d="M49.53,42.883H46.294V39.647a.647.647,0,1,0-1.294,0V43.53a.647.647,0,0,0,.647.647H49.53a.647.647,0,0,0,0-1.294Z" transform="translate(-15.88 -13.763)"/>
    <path id="Path_66" data-name="Path 66" class="cls-1" d="M19.942,21H7V39.766H19.942V28.118H31.59V21H19.942Zm5.824,1.294H30.3v4.53h-4.53Zm-11.648,0h4.53v4.53h-4.53Zm-5.824,0h4.53v4.53H8.294Zm0,5.824h4.53v4.53H8.294Zm4.53,10.354H8.294v-4.53h4.53Zm5.824,0h-4.53v-4.53h4.53Zm0-5.824h-4.53v-4.53h4.53Zm5.824-5.824h-4.53v-4.53h4.53Z" transform="translate(-2.47 -7.411)"/>
    <path id="Path_67" data-name="Path 67" class="cls-1" d="M21.354,35.591H1.294V10.354H32.355v8.412a.647.647,0,0,0,1.294,0V3.236A.647.647,0,0,0,33,2.588H29.767V.647A.647.647,0,0,0,29.12,0H24.59a.647.647,0,0,0-.647.647V2.588H9.707V.647A.647.647,0,0,0,9.059,0H4.53a.647.647,0,0,0-.647.647V2.588H.647A.647.647,0,0,0,0,3.236v33a.647.647,0,0,0,.647.647H21.354a.647.647,0,0,0,0-1.294Zm3.883-34.3h3.236V5.177H25.237V1.294Zm-20.06,0H8.412V5.177H5.177V1.294ZM1.294,3.883H3.883V5.824a.647.647,0,0,0,.647.647h4.53a.647.647,0,0,0,.647-.647V3.883H23.943V5.824a.647.647,0,0,0,.647.647h4.53a.647.647,0,0,0,.647-.647V3.883h2.588V9.059H1.294Z"/>
  </g>
</svg>
