<svg xmlns="http://www.w3.org/2000/svg" viewBox="0 0 48.46 48.46">
  <defs>
    <style>
      .cls-1 {
        fill: #dc4e41;
      }

      .cls-2 {
        fill: #fff;
      }
    </style>
  </defs>
  <g id="Group_55" data-name="Group 55" transform="translate(0 0.001)">
    <g id="Group_50" data-name="Group 50" transform="translate(0 -0.001)">
      <circle id="XMLID_30_" class="cls-1" cx="24.23" cy="24.23" r="24.23" transform="translate(0 0)"/>
    </g>
    <g id="Group_52" data-name="Group 52" transform="translate(8.43 15.309)">
      <path id="Path_71" data-name="Path 71" class="cls-1" d="M19.523,45.45a9.985,9.985,0,0,0,6.735,9.445c3.721,1.25,8.3.315,10.771-2.871,1.808-2.233,2.218-5.209,2.023-7.99-3.186-.029-6.373-.019-9.554-.014-.005,1.135,0,2.266,0,3.4,1.908.053,3.816.029,5.724.067a5.519,5.519,0,0,1-3.244,3.782A6.31,6.31,0,1,1,27.732,39.4c2.046-.72,4.155.091,5.906,1.155.887-.83,1.717-1.717,2.533-2.614A10.043,10.043,0,0,0,19.523,45.45Z" transform="translate(-19.517 -35.445)"/>
      <path id="Path_72" data-name="Path 72" class="cls-1" d="M75.319,48.668c-.01.949-.019,1.9-.024,2.852-.954.01-1.9.014-2.852.019v2.843c.949,0,1.9.01,2.852.019.01.949.01,1.9.019,2.852.945,0,1.894,0,2.843,0,.005-.954.01-1.9.019-2.857l2.852-.014V51.54c-.949,0-1.9-.01-2.852-.019-.005-.949-.014-1.9-.019-2.852Z" transform="translate(-49.583 -42.957)"/>
      <g id="Group_51" data-name="Group 51">
        <path id="Path_73" data-name="Path 73" class="cls-2" d="M19.523,45.449A10.043,10.043,0,0,1,36.17,37.937c-.816.9-1.646,1.784-2.533,2.614-1.751-1.064-3.859-1.875-5.906-1.155a6.31,6.31,0,1,0,4.25,11.873,5.52,5.52,0,0,0,3.244-3.782c-1.908-.038-3.816-.014-5.724-.067,0-1.135-.01-2.266,0-3.4,3.182,0,6.368-.014,9.554.014.2,2.781-.215,5.757-2.023,7.99-2.476,3.186-7.05,4.121-10.771,2.871A9.985,9.985,0,0,1,19.523,45.449Z" transform="translate(-19.517 -35.445)"/>
        <path id="Path_74" data-name="Path 74" class="cls-2" d="M75.319,48.668h2.838c.005.949.014,1.9.019,2.852.949.01,1.9.014,2.852.019v2.843l-2.852.014c-.01.954-.014,1.9-.019,2.857-.949,0-1.9,0-2.843,0-.009-.954-.009-1.9-.019-2.852-.949-.01-1.9-.014-2.852-.019V51.539q1.424-.007,2.852-.019C75.3,50.571,75.309,49.617,75.319,48.668Z" transform="translate(-49.583 -42.957)"/>
      </g>
    </g>
  </g>
</svg>
